# xmcd
#
# Track frame offsets:
#	150
#	22775
#	45540
#	65527
#	84853
#	108232
#	129811
#	151461
#	174081
#	197626
#	216898
#	236526
#	255566
#
# Disc length: 3642 seconds
#
# Revision: 1
# Processed by: cddbd v1.5.1PL0 Copyright (c) Steve Scherf et al.
# Submitted via: audiograbber 1.83.01
#
DISCID=960e380d
DTITLE=John Meyer's Blues Express - John Meyer's Blues Express
DYEAR=2004
DGENRE=Blues
TTITLE0=Six String Blues
TTITLE1=The Watering Hole
TTITLE2=Like a Sledgehammer
TTITLE3=Sweet Talkin' Man
TTITLE4=McCall-Meyer
TTITLE5=SRV
TTITLE6=Sun's Gon' Down
TTITLE7=Waiting For The 309
TTITLE8=Lonely Street
TTITLE9=Vampire Blues
TTITLE10=Magic Man
TTITLE11=Roadtrain
TTITLE12=Smoky Town
EXTD=
EXTT0=Salter-Meyer
EXTT1=Liley-Meyer
EXTT2=Liley-Meyer
EXTT3=Liley-Meyer
EXTT4=
EXTT5=Meyer
EXTT6=Cole-Meyer
EXTT7=Liley-Meyer
EXTT8=Salter-Meyer
EXTT9=Liley-Meyer
EXTT10=Liley-Meyer
EXTT11=McCall-Liley-Meyer
EXTT12=Liley-Meyer
PLAYORDER=
